<svg xmlns="http://www.w3.org/2000/svg" version="1.1">
    <g id="logo"
        xmlns="http://www.w3.org/2000/svg">
        <path d="M1.104 88.513h13.183c0.178 -0.063 0.33 -0.252 0.33 -0.499V68.911c0 -6.115 3.454 -10.344 8.486 -10.344h54.301c12.242 0 18.176 -7.55 18.176 -17.441c0 -8.864 -4.857 -15.799 -14.813 -17.064H0.8600000000000136c-0.023 0.05 -0.062 0.089 -0.062 0.152v5.964c0 0.302 0.15 0.454 0.45 0.454h71.574c6.084 0 8.938 4.379 8.938 10.494c0 6.116 -2.854 10.495 -8.938 10.495h-56.628c-8.787 0 -15.396 7.476 -15.396 17.29v19.103C0.796999999999997 88.261 0.9029999999999916 88.449 1.1040000000000134 88.513z"/>
        <path d="M155.361 71.101V41.126c0 -6.115 2.854 -10.494 8.941 -10.494h37.547c0.23 0 0.451 -0.228 0.451 -0.454v-5.964c0 -0.052 -0.015 -0.103 -0.035 -0.152h-45.909c-9.951 1.265 -14.812 8.2 -14.812 17.064v29.974c0 6.115 -2.934 10.495 -8.94 10.495h-39.652c-0.225 0 -0.451 0.151 -0.451 0.453v5.965c0 0.247 0.152 0.436 0.33 0.499h45.019C149.584 88.204 155.361 80.713 155.361 71.101z"/>
        <path d="M221.104 88.513h13.183c0.178 -0.063 0.33 -0.252 0.33 -0.499V68.911c0 -6.115 3.454 -10.344 8.486 -10.344h54.301c12.242 0 18.176 -7.55 18.176 -17.441c0 -8.864 -4.857 -15.799 -14.813 -17.064H220.86c-0.023 0.05 -0.062 0.089 -0.062 0.152v5.964c0 0.302 0.15 0.454 0.45 0.454h71.574c6.084 0 8.938 4.379 8.938 10.494c0 6.116 -2.854 10.495 -8.938 10.495h-56.628c-8.787 0 -15.396 7.476 -15.396 17.29v19.103C220.797 88.261 220.903 88.449 221.104 88.513z"/>
        <path d="M265,58 h15 l35.884,30 h-15 z" />
    </g>
</svg>